<?xml version="1.0" standalone="no"?>
<!DOCTYPE svg PUBLIC "-//W3C//DTD SVG 1.1//EN" "http://www.w3.org/Graphics/SVG/1.1/DTD/svg11.dtd" >
<svg xmlns="http://www.w3.org/2000/svg">
<metadata></metadata>
<defs>
<font id="illegal_curveslight" horiz-adv-x="1705" >
<font-face units-per-em="2048" ascent="1536" descent="-512" />
<missing-glyph horiz-adv-x="1024" />
<glyph horiz-adv-x="2048" />
<glyph horiz-adv-x="2048" />
<glyph unicode="&#xd;" horiz-adv-x="2048" />
<glyph unicode=" "  horiz-adv-x="1024" />
<glyph unicode="&#x09;" horiz-adv-x="1024" />
<glyph unicode="&#xa0;" horiz-adv-x="1024" />
<glyph unicode="!" d="M606 180q0 75 54 125.5t143 50.5q73 0 124.5 -51t51.5 -125t-51.5 -125t-124.5 -51q-89 0 -143 50.5t-54 125.5zM627 514v1020h313v-1020h-313z" />
<glyph unicode="#" d="M289 440l37 265h245l19 169h-244l37 283h246l55 377h283l-56 -377h189l57 377h262l-55 -377h283l-37 -283h-285l-18 -169h264l-37 -265h-264l-58 -434h-282l57 434h-188l-58 -434h-264l58 434h-246zM836 705h206l21 169h-191z" />
<glyph unicode="$" d="M467 528h295q0 -50 26.5 -85t67.5 -35q50 0 78.5 26t28.5 68q0 23 -7 42.5t-23 36t-30 28t-42 24.5t-43.5 20t-49.5 19.5t-47 17.5q-36 15 -62 28t-62.5 40.5t-59 59.5t-39.5 82.5t-17 111.5q0 78 22.5 141t61 105t85 67.5t100.5 36.5v174h239v-174q106 -21 171.5 -109.5 t58.5 -214.5h-256q0 39 -26 74t-81 35q-38 0 -59 -29.5t-21 -64.5q0 -60 44.5 -93.5t160.5 -85.5q15 -6 23 -10q76 -29 129.5 -72t78.5 -89.5t35 -85t10 -74.5q0 -115 -69.5 -214.5t-198.5 -148.5v-174h-239v174q-59 8 -108 34t-80.5 62t-53.5 80t-31.5 87t-9.5 85z" />
<glyph unicode="&#x26;" d="M248 432q0 46 10.5 89t24.5 75t39.5 66t44.5 55t52.5 48t50 39t48.5 34q-143 143 -143 317q0 160 120 270.5t293 110.5q165 0 273 -106.5t108 -258.5q0 -68 -21 -127t-55.5 -99.5t-63 -64.5t-58.5 -42l159 -168l111 231h350l-237 -446l221 -230l-229 -223l-177 182 q-16 -27 -45.5 -55.5t-76.5 -58.5t-119 -49t-156 -19q-239 0 -381.5 123t-142.5 307zM606 463q0 -69 49 -106.5t125 -37.5q110 0 174 80l-237 240q-1 -1 -18 -15.5t-20.5 -18l-17.5 -17.5t-18.5 -20.5t-14 -21t-12.5 -25.5t-6.5 -26.5t-3.5 -31.5zM700 1171q0 -79 80 -159 q45 37 71 74t26 85q0 42 -24 68.5t-65 26.5q-37 0 -62.5 -25t-25.5 -70z" />
<glyph unicode="(" d="M336 780q0 86 18.5 173.5t61 178.5t105 168t157.5 140t211 96v-264q-50 -26 -96.5 -70t-88.5 -106t-67 -147.5t-25 -180.5q0 -176 81 -305.5t196 -183.5v-277q-116 36 -211 101t-157.5 143.5t-105 171t-61 182.5t-18.5 180z" />
<glyph unicode=")" d="M819 -8v276q49 19 96.5 61t88.5 104t66.5 150t25.5 187q0 169 -83.5 303.5t-193.5 173.5v277q140 -45 249 -131t173.5 -191.5t97.5 -218.5t33 -225q0 -87 -18.5 -175t-61.5 -178.5t-105.5 -168t-157 -142.5t-210.5 -102z" />
<glyph unicode="*" d="M483 760l451 160l-451 159l160 291l371 -317l-107 477h346l-106 -504l371 344l186 -291l-477 -159l477 -160l-186 -291l-371 317l106 -477h-346l107 504l-371 -344z" />
<glyph unicode="+" d="M104 518v494h517v516h469v-516h518v-494h-518v-516h-469v516h-517z" />
<glyph unicode="," horiz-adv-x="757" d="M68 0l643 616v-616h-643z" />
<glyph unicode="." horiz-adv-x="737" d="M70 4v612h612v-612h-612z" />
<glyph unicode="0" horiz-adv-x="1624" d="M47 768q0 165 61 309t164.5 244.5t244.5 158.5t298 58q211 0 387 -98t279.5 -275t103.5 -397q0 -218 -103.5 -395t-279.5 -275t-387 -98q-157 0 -298 58t-244.5 158.5t-164.5 244t-61 307.5zM123 768q0 -146 53 -278.5t144.5 -229.5t220.5 -154t274 -57q147 0 280.5 57 t230 153.5t153.5 229.5t57 279q0 207 -97 373t-261.5 257t-362.5 91q-196 0 -353.5 -91t-248 -256.5t-90.5 -373.5z" />
<glyph unicode="1" horiz-adv-x="522" d="M43 1534h410v-1536h-78v1458h-230z" />
<glyph unicode="2" horiz-adv-x="1032" d="M41 -4v51q96 95 272.5 285t257.5 272q12 12 55.5 54.5t62 62t56 60t56.5 70t43.5 69.5t37.5 80.5t19 82.5q0 166 -111 272.5t-268 106.5h-24h-54h-151h-201v-327h-51v403h51h430q188 0 308 -135.5t120 -345.5q0 -37 -9.5 -74t-19.5 -62t-39 -66.5t-42 -59t-57.5 -71 t-59.5 -71.5l-606 -606h833v-51h-909z" />
<glyph unicode="3" horiz-adv-x="1015" d="M59 -4v49v248h52v-248h172h223q184 0 290.5 112t106.5 285q0 47 -14.5 99t-48 106t-81 96.5t-119.5 69.5t-157 27h-100v51h100q84 0 147 24.5t95 57.5t51.5 78.5t24 76t4.5 60.5q0 128 -82.5 200t-216.5 72h-23h-174h-198v-221h-52v221v76h52h395q89 0 167 -39 t129.5 -120t51.5 -189q0 -65 -18 -122.5t-63.5 -112t-115.5 -89.5q87 -35 149 -88.5t92.5 -114.5t43 -114t12.5 -105q0 -203 -122 -324.5t-326 -121.5h-395h-52z" />
<glyph unicode="4" horiz-adv-x="993" d="M43 285v49l795 1204h75v-539v-639v-75v-285h-49v285h-821zM119 360h745v1102z" />
<glyph unicode="5" horiz-adv-x="1126" d="M55 455h51q8 -92 52 -170t108 -128t140 -78t151 -28q113 0 212 59.5t158.5 165t59.5 230.5q0 188 -128 320t-302 132q-41 0 -71 -3.5t-81.5 -18.5t-102.5 -54t-97 -100l-49 27l151 729h606h48h26v-352l-74 49v227h-579l-103 -555q125 125 326 125q148 0 265 -73.5 t179 -193t62 -259.5q0 -111 -43.5 -207.5t-114.5 -160.5t-162 -101t-186 -37q-62 0 -126.5 15.5t-129.5 51t-117 86.5t-87 129.5t-42 172.5z" />
<glyph unicode="6" horiz-adv-x="1087" d="M47 481q0 252 127 379l455 682h76l-330 -481q-12 -23 -36.5 -60.5t-37.5 -64.5q35 37 104 56.5t148 19.5q94 0 181 -36.5t153 -101t105.5 -160t39.5 -206.5q0 -139 -61 -254.5t-171 -183.5t-247 -68q-135 0 -232 37t-171 115q-103 129 -103 327zM96 481q0 -85 32 -163.5 t88 -137.5t137 -94t173 -35q205 0 331 131t126 326q0 109 -38.5 198t-101 144t-137.5 84t-153 29q-56 0 -116 -15.5t-121.5 -52.5t-110 -91t-79 -137.5t-30.5 -185.5z" />
<glyph unicode="7" horiz-adv-x="964" d="M49 1202v256v78h78h764l-25 -78l-665 -1454h-74l661 1454h-661v-256h-78z" />
<glyph unicode="8" horiz-adv-x="1046" d="M59 446q0 142 91 251t233 171q-97 40 -160 127.5t-63 196.5q0 131 108 239.5t238 108.5q74 0 143.5 -30t119.5 -78.5t80 -112t30 -127.5q0 -109 -63.5 -196.5t-160.5 -127.5q142 -62 233 -171t91 -251q-21 -194 -147 -320t-326 -126q-186 0 -316.5 130t-130.5 316z M133 446q0 -165 111.5 -281t261.5 -116q167 0 283 115t116 282q0 150 -117 261.5t-282 111.5q-148 0 -260.5 -112.5t-112.5 -260.5zM209 1167q0 -110 92 -192t205 -82q128 0 213.5 80t85.5 194q0 129 -85 214t-214 85q-114 0 -205.5 -87t-91.5 -212z" />
<glyph unicode="9" horiz-adv-x="1101" d="M41 1012q0 103 37 199t102 169.5t161 117.5t206 44q198 0 381 -176q100 -141 100 -330q0 -125 -32 -211.5t-95 -169.5l-457 -657h-73l327 457q59 107 76 127q-10 -12 -23 -19t-35.5 -16t-41.5 -19q-47 -24 -152 -24q-127 0 -236.5 63t-177 180.5t-67.5 264.5zM92 1012 q0 -87 27.5 -163.5t72.5 -129t102 -90.5t115 -56t113 -18q56 0 115 15.5t121 52.5t110 90.5t78.5 137t30.5 185.5q0 176 -122 303t-308 127q-136 0 -240.5 -61t-159.5 -164t-55 -229z" />
<glyph unicode="&#x3c;" d="M37 575v398l1298 534v-446l-862 -293l862 -297v-444z" />
<glyph unicode="&#x3e;" d="M348 14v453l873 307l-873 287v452l1303 -544v-402z" />
<glyph unicode="?" d="M418 1040v45q0 199 137 324t358 125q100 0 183.5 -34t137 -89t83 -123t29.5 -139q0 -25 -3.5 -49.5t-8 -44.5t-15 -42t-17.5 -37t-22.5 -35.5t-24 -31.5t-27 -31.5t-26.5 -28.5t-29 -28.5t-28 -27.5q-92 -92 -115.5 -129.5t-23.5 -88.5h-326q0 98 43 167.5t143 158.5 q67 67 95 117.5t28 99.5q0 107 -108 107q-63 0 -93 -42t-30 -98v-45h-340zM649 205q0 79 60.5 140t140.5 61q81 0 142 -60.5t61 -140.5t-61 -140.5t-142 -60.5q-80 0 -140.5 61t-60.5 140z" />
<glyph unicode="@" d="M55 760q0 149 55 288.5t152.5 248t246 174t322.5 65.5q152 0 285 -52.5t226 -141.5t146.5 -211t53.5 -257q0 -137 -57.5 -260t-149.5 -195.5t-190 -72.5q-69 0 -119.5 42t-77.5 108q-50 -84 -102.5 -117t-128.5 -33q-125 0 -212 100t-87 248q0 108 46 209.5t135 169.5 t200 68q73 0 129.5 -33.5t68.5 -83.5l17 98h215l-84 -428q0 -19 -8.5 -56.5t-8.5 -43.5q0 -36 12 -51t38 -15q63 0 114 106t51 240q0 212 -141 346t-354 134q-131 0 -244.5 -51t-189 -134.5t-118 -190t-42.5 -218.5q0 -40 5.5 -84t22.5 -102t43 -110.5t71 -105t103.5 -91 t144 -62t187.5 -23.5q252 0 431 66l32 -182q-197 -66 -463 -66q-167 0 -302.5 49.5t-222 127.5t-145 180.5t-82.5 203t-24 199.5zM616 711q0 -90 46 -136.5t104 -46.5q105 0 164 150q18 33 18 115q0 165 -117 165q-84 0 -149.5 -79t-65.5 -168z" />
<glyph unicode="A" horiz-adv-x="1271" d="M63 -2l1076 1538h102v-1538h-80l8 539v51l11 409l10 486l-615 -895l-51 -51l-385 -539h-76z" />
<glyph unicode="B" horiz-adv-x="1011" d="M51 -2v51h385q66 0 98 1t71 6.5t63 17.5q206 80 206 336q0 113 -51.5 191.5t-154.5 141.5q-38 12 -82 17.5t-76 6.5t-98 1h-361v51h361q100 0 204 51q89 52 122.5 123.5t33.5 161.5t-45.5 164t-110.5 117q-23 13 -48.5 19t-80.5 14t-102 18h-334v51h334q61 0 116 -8 t85 -16.5t82 -26.5q89 -52 134.5 -148t45.5 -184q0 -276 -232 -336q81 -29 141.5 -75.5t91.5 -91t49.5 -96t23 -84t4.5 -62.5q0 -151 -56.5 -238.5t-177.5 -148.5q-36 -12 -80 -17.5t-77 -6.5t-99 -1h-385z" />
<glyph unicode="C" horiz-adv-x="1075" d="M39 770q0 164 61 307.5t164.5 244t244.5 158.5t298 58q41 0 109 -12.5t90 -12.5v-73q-109 49 -199 49q-147 0 -276 -56.5t-220 -153t-143.5 -229t-52.5 -280.5q0 -207 89.5 -371.5t247.5 -256t355 -91.5q50 0 76.5 1t62.5 7t60 19v-51q-24 -12 -60 -17.5t-62.5 -6.5 t-76.5 -1q-157 0 -298 58t-244.5 158.5t-164.5 244t-61 307.5z" />
<glyph unicode="D" horiz-adv-x="1234" d="M59 0v51h52h280q346 0 530.5 184.5t184.5 530.5q0 277 -178 510q-205 205 -537 205h-256v-512h-76v512v51h76h256q352 0 561 -203q205 -172 205 -563q0 -363 -202.5 -564.5t-563.5 -201.5h-332z" />
<glyph unicode="E" horiz-adv-x="956" d="M43 0v1534h844v-49h-795v-690h461v-54h-461v-692h795v-49h-844z" />
<glyph unicode="F" horiz-adv-x="856" d="M57 -4v1546h748v-51h-696v-696h438v-52h-438v-747h-52z" />
<glyph unicode="G" horiz-adv-x="1687" d="M45 772q0 162 61 305.5t164.5 244t244 158.5t296.5 58h795l-76 -51h-418h-250h-51q-146 0 -278 -56.5t-228 -152.5t-152.5 -228t-56.5 -278q0 -154 56.5 -289t152.5 -228.5t227.5 -147.5t278.5 -54q200 0 348 74l324 471h-795l-49 47h891h76l-76 -98l-23 -25l-24 -22 l-174 -273l-99 -127q-20 -9 -41.5 -21.5t-34 -19t-22.5 -6.5q-47 -24 -104 -36t-93.5 -13.5t-103.5 -1.5q-156 0 -296.5 58t-244 158.5t-164.5 244.5t-61 309z" />
<glyph unicode="H" horiz-adv-x="776" d="M57 2v1530h78v-229v-510h508v690h-227v49h227h78v-49v-1481h-78v739h-508v-739h-78z" />
<glyph unicode="I" horiz-adv-x="131" d="M39 8v1071h49v-1071h-49zM39 1130v408h49v-408h-49z" />
<glyph unicode="J" horiz-adv-x="866" d="M43 4v51v203h78v-203h49h127h283h100h76v76v307v561v459h-332v76h332h51v-76v-459v-561v-434h-51h-176h-283h-176h-78z" />
<glyph unicode="K" horiz-adv-x="1118" d="M70 -2v1538h51v-768v-770h-51zM199 768l716 768h76l-715 -768l768 -770h-77z" />
<glyph unicode="L" horiz-adv-x="823" d="M49 -2v1540h53v-1491h590v258h76v-307h-76h-643z" />
<glyph unicode="M" horiz-adv-x="2369" d="M51 4l1047 1532h102v-1481l1020 1481h104v-1481v-51h-77h-330v51h330v1430l-1020 -1481h-78v1481l-1047 -1481h-51z" />
<glyph unicode="N" horiz-adv-x="1329" d="M66 670v870h75l1080 -1462v1386h-361v76h361h51v-76v-1464h-80l-1075 1464v-794h-51z" />
<glyph unicode="O" horiz-adv-x="1636" d="M41 766q0 165 61.5 309.5t165.5 245.5t245 159t296 58q157 0 299 -58t246 -159t165.5 -245.5t61.5 -309.5q0 -163 -61.5 -306.5t-165.5 -244.5t-246 -159t-299 -58q-155 0 -296 58t-245 158.5t-165.5 244.5t-61.5 307zM92 766q0 -154 56.5 -288t153.5 -227.5 t228.5 -147.5t278.5 -54q198 0 357.5 91.5t250 255.5t90.5 370q0 148 -53 281.5t-145 230t-222 153t-278 56.5q-146 0 -278.5 -56.5t-228.5 -153t-153 -230t-57 -281.5z" />
<glyph unicode="P" horiz-adv-x="999" d="M51 -2v1540h359q136 0 222.5 -22.5t164.5 -79.5q58 -37 104.5 -139t46.5 -197q0 -107 -43.5 -200t-107.5 -157q-38 -28 -75.5 -44.5t-92.5 -23.5t-93 -8t-126 -1h-310v-668h-49zM100 717h310q215 0 333 76q57 41 93 127t36 180q0 79 -36.5 161t-92.5 123 q-58 58 -129 80.5t-204 22.5h-310v-770z" />
<glyph unicode="Q" horiz-adv-x="1658" d="M53 770q0 219 105 395.5t286 274.5t402 98q156 0 296.5 -58t244 -158.5t164.5 -244t61 -307.5q0 -218 -101.5 -397t-269.5 -271l125 -98h-100l-74 74q-189 -74 -346 -74q-221 0 -402 98t-286 274t-105 394zM127 770q0 -205 96.5 -370t260.5 -256t362 -91q152 0 295 76 l-320 295l49 51l322 -321q167 92 256.5 252t89.5 364q0 146 -56.5 280t-150.5 229.5t-221.5 152.5t-263.5 57q-196 0 -361.5 -96t-261.5 -261.5t-96 -361.5z" />
<glyph unicode="R" horiz-adv-x="1046" d="M51 1485v51h326q178 0 260 -17.5t145 -58.5q95 -37 160.5 -153t65.5 -250q0 -66 -24.5 -147.5t-76.5 -153.5q-28 -41 -61.5 -70.5t-64 -46.5t-76.5 -28.5t-80 -16t-93 -11.5q-19 -2 -28 -3l428 -578h-76l-479 653h51q56 0 93.5 1.5t100.5 7.5t109.5 23t73.5 44 q149 143 149 326q0 99 -53.5 199t-144.5 155q-112 74 -379 74h-326z" />
<glyph unicode="S" horiz-adv-x="989" d="M45 0l74 51h149h199q152 0 262.5 98.5t110.5 247.5q0 72 -24 130.5t-52.5 92.5t-84.5 65t-88 43t-94 32q-7 2 -10.5 3.5t-9 3t-10.5 3.5q-52 8 -99.5 21t-104.5 41.5t-97.5 67t-68 101t-27.5 140.5q0 118 58 210.5t148 139.5t191 47h446l-73 -51h-150h-201h-22 q-86 0 -166.5 -43.5t-131 -119.5t-50.5 -161q0 -72 25 -127t58 -87.5t97.5 -60t111 -40t130.5 -31.5q5 -2 28 -8.5t39.5 -11t45.5 -16t50.5 -23t50 -31t49.5 -40.5t42.5 -51.5t35 -65t22.5 -79t9 -94.5q0 -108 -65 -200.5t-167.5 -144.5t-213.5 -52h-422z" />
<glyph unicode="T" horiz-adv-x="600" d="M55 0v1481v51h486v-51h-435v-1481h-51z" />
<glyph unicode="U" horiz-adv-x="1036" d="M47 553v907v76h76h225v-76h-225v-907q0 -96 2.5 -142t20 -111t53.5 -124q58 -58 145 -92.5t182 -34.5q76 0 161 35.5t140 91.5q36 59 53.5 124t20 111t2.5 142v907h-252v76h252h76v-76v-907q0 -50 -1 -80.5t-5.5 -81.5t-16 -88t-30 -80t-50 -80t-73.5 -67 q-113 -76 -303 -76q-158 0 -277 76q-42 30 -73.5 67t-50 80t-30 80t-16 88t-5.5 81.5t-1 80.5z" />
<glyph unicode="V" horiz-adv-x="1286" d="M57 2v1456v76h52h352v-76h-352v-1431l1052 1507h51l-1054 -1532h-101z" />
<glyph unicode="W" horiz-adv-x="2404" d="M41 0v1456v78h78h334v-78h-334v-1429l1022 1507h76v-1507l1048 1507h78l-1075 -1534h-101v1456l-997 -1456h-129z" />
<glyph unicode="X" horiz-adv-x="1239" d="M39 -2l539 772l-515 770h80l459 -692l463 692h80l-514 -770l538 -772h-75l-492 721l-487 -721h-76z" />
<glyph unicode="Y" horiz-adv-x="1220" d="M49 1536h51h27h332v-74h-307l460 -872l461 946h76l-512 -1022v-512h-51v512z" />
<glyph unicode="Z" horiz-adv-x="1153" d="M43 1155v336v51h78h923l-24 -51l-852 -1444l-4 -4l907 8v-53h-1001l24 27l850 1466h-823v-336h-78z" />
<glyph unicode="[" d="M354 0v1534h494v-213h-240v-1108h240v-213h-494z" />
<glyph unicode="]" d="M815 0v213h240v1108h-240v213h494v-1534h-494z" />
<glyph unicode="a" horiz-adv-x="1310" d="M49 -4v1542h105l1077 -1542h-78l-360 539l-50 51l-616 901v-488v-413v-51v-539h-78z" />
<glyph unicode="b" horiz-adv-x="1011" d="M51 -2v51h385q66 0 98 1t71 6.5t63 17.5q206 80 206 336q0 113 -51.5 191.5t-154.5 141.5q-38 12 -82 17.5t-76 6.5t-98 1h-361v51h361q100 0 204 51q89 52 122.5 123.5t33.5 161.5t-45.5 164t-110.5 117q-23 13 -48.5 19t-80.5 14t-102 18h-334v51h334q61 0 116 -8 t85 -16.5t82 -26.5q89 -52 134.5 -148t45.5 -184q0 -276 -232 -336q81 -29 141.5 -75.5t91.5 -91t49.5 -96t23 -84t4.5 -62.5q0 -151 -56.5 -238.5t-177.5 -148.5q-36 -12 -80 -17.5t-77 -6.5t-99 -1h-385z" />
<glyph unicode="c" horiz-adv-x="1075" d="M39 770q0 164 61 307.5t164.5 244t244.5 158.5t298 58q41 0 109 -12.5t90 -12.5v-73q-109 49 -199 49q-147 0 -276 -56.5t-220 -153t-143.5 -229t-52.5 -280.5q0 -207 89.5 -371.5t247.5 -256t355 -91.5q50 0 76.5 1t62.5 7t60 19v-51q-24 -12 -60 -17.5t-62.5 -6.5 t-76.5 -1q-157 0 -298 58t-244.5 158.5t-164.5 244t-61 307.5z" />
<glyph unicode="d" horiz-adv-x="1234" d="M59 0v51h52h280q346 0 530.5 184.5t184.5 530.5q0 277 -178 510q-205 205 -537 205h-256v-512h-76v512v51h76h256q352 0 561 -203q205 -172 205 -563q0 -363 -202.5 -564.5t-563.5 -201.5h-332z" />
<glyph unicode="e" horiz-adv-x="956" d="M43 0v1534h844v-49h-795v-690h461v-54h-461v-692h795v-49h-844z" />
<glyph unicode="f" horiz-adv-x="856" d="M57 -4v1546h748v-51h-696v-696h438v-52h-438v-747h-52z" />
<glyph unicode="g" horiz-adv-x="1687" d="M45 772q0 162 61 305.5t164.5 244t244 158.5t296.5 58h795l-76 -51h-418h-250h-51q-146 0 -278 -56.5t-228 -152.5t-152.5 -228t-56.5 -278q0 -154 56.5 -289t152.5 -228.5t227.5 -147.5t278.5 -54q200 0 348 74l324 471h-795l-49 47h891h76l-76 -98l-23 -25l-24 -22 l-174 -273l-99 -127q-20 -9 -41.5 -21.5t-34 -19t-22.5 -6.5q-47 -24 -104 -36t-93.5 -13.5t-103.5 -1.5q-156 0 -296.5 58t-244 158.5t-164.5 244.5t-61 309z" />
<glyph unicode="h" horiz-adv-x="776" d="M57 2v1530h78v-229v-510h508v690h-227v49h227h78v-49v-1481h-78v739h-508v-739h-78z" />
<glyph unicode="i" horiz-adv-x="131" d="M39 8v1071h49v-1071h-49zM39 1130v408h49v-408h-49z" />
<glyph unicode="j" horiz-adv-x="866" d="M43 4v51v203h78v-203h49h127h283h100h76v76v307v561v459h-332v76h332h51v-76v-459v-561v-434h-51h-176h-283h-176h-78z" />
<glyph unicode="k" horiz-adv-x="1118" d="M70 -2v1538h51v-768v-770h-51zM199 768l716 768h76l-715 -768l768 -770h-77z" />
<glyph unicode="l" horiz-adv-x="823" d="M49 -2v1540h53v-1491h590v258h76v-307h-76h-643z" />
<glyph unicode="m" horiz-adv-x="2383" d="M43 0v51v1481h102l998 -1481v1481h100l1073 -1532h-78l-1044 1481v-1481h-78l-1022 1481v-1430h332v-51h-332h-51z" />
<glyph unicode="n" horiz-adv-x="1318" d="M55 0v1460v78h51h359v-78h-359v-1382l1049 1460h107v-870h-56v792l-1073 -1460h-78z" />
<glyph unicode="o" horiz-adv-x="1636" d="M41 766q0 165 61.5 309.5t165.5 245.5t245 159t296 58q157 0 299 -58t246 -159t165.5 -245.5t61.5 -309.5q0 -163 -61.5 -306.5t-165.5 -244.5t-246 -159t-299 -58q-155 0 -296 58t-245 158.5t-165.5 244.5t-61.5 307zM92 766q0 -154 56.5 -288t153.5 -227.5 t228.5 -147.5t278.5 -54q198 0 357.5 91.5t250 255.5t90.5 370q0 148 -53 281.5t-145 230t-222 153t-278 56.5q-146 0 -278.5 -56.5t-228.5 -153t-153 -230t-57 -281.5z" />
<glyph unicode="p" horiz-adv-x="999" d="M51 -2v1540h359q136 0 222.5 -22.5t164.5 -79.5q58 -37 104.5 -139t46.5 -197q0 -107 -43.5 -200t-107.5 -157q-38 -28 -75.5 -44.5t-92.5 -23.5t-93 -8t-126 -1h-310v-668h-49zM100 717h310q215 0 333 76q57 41 93 127t36 180q0 79 -36.5 161t-92.5 123 q-58 58 -129 80.5t-204 22.5h-310v-770z" />
<glyph unicode="q" horiz-adv-x="1658" d="M53 770q0 219 105 395.5t286 274.5t402 98q156 0 296.5 -58t244 -158.5t164.5 -244t61 -307.5q0 -218 -101.5 -397t-269.5 -271l125 -98h-100l-74 74q-189 -74 -346 -74q-221 0 -402 98t-286 274t-105 394zM127 770q0 -205 96.5 -370t260.5 -256t362 -91q152 0 295 76 l-320 295l49 51l322 -321q167 92 256.5 252t89.5 364q0 146 -56.5 280t-150.5 229.5t-221.5 152.5t-263.5 57q-196 0 -361.5 -96t-261.5 -261.5t-96 -361.5z" />
<glyph unicode="r" horiz-adv-x="1101" d="M59 4v1530h351q164 0 248 -17.5t159 -54.5q94 -41 151.5 -154.5t57.5 -250.5q4 -24 4 -51q0 -50 -14 -104q-20 -84 -72 -154q-33 -41 -70.5 -70t-73.5 -46.5t-84.5 -28t-90 -15.5t-103.5 -8l406 -576h-70l-448 631h43q59 0 99 2t100 10.5t108.5 30.5t83.5 57 q127 122 127 322q0 107 -49 202t-134 148q-58 47 -137.5 58.5t-240.5 11.5h-293v-1473h-58z" />
<glyph unicode="s" horiz-adv-x="989" d="M45 0l74 51h149h199q152 0 262.5 98.5t110.5 247.5q0 72 -24 130.5t-52.5 92.5t-84.5 65t-88 43t-94 32q-7 2 -10.5 3.5t-9 3t-10.5 3.5q-52 8 -99.5 21t-104.5 41.5t-97.5 67t-68 101t-27.5 140.5q0 118 58 210.5t148 139.5t191 47h446l-73 -51h-150h-201h-22 q-86 0 -166.5 -43.5t-131 -119.5t-50.5 -161q0 -72 25 -127t58 -87.5t97.5 -60t111 -40t130.5 -31.5q5 -2 28 -8.5t39.5 -11t45.5 -16t50.5 -23t50 -31t49.5 -40.5t42.5 -51.5t35 -65t22.5 -79t9 -94.5q0 -108 -65 -200.5t-167.5 -144.5t-213.5 -52h-422z" />
<glyph unicode="t" horiz-adv-x="626" d="M63 1491v51h488v-51v-1487h-78v1487h-410z" />
<glyph unicode="u" horiz-adv-x="1036" d="M47 553v907v76h76h225v-76h-225v-907q0 -96 2.5 -142t20 -111t53.5 -124q58 -58 145 -92.5t182 -34.5q76 0 161 35.5t140 91.5q36 59 53.5 124t20 111t2.5 142v907h-252v76h252h76v-76v-907q0 -50 -1 -80.5t-5.5 -81.5t-16 -88t-30 -80t-50 -80t-73.5 -67 q-113 -76 -303 -76q-158 0 -277 76q-42 30 -73.5 67t-50 80t-30 80t-16 88t-5.5 81.5t-1 80.5z" />
<glyph unicode="v" horiz-adv-x="1249" d="M55 1536h49l1057 -1509v1433h-325v76h325h51v-76v-1460h-100z" />
<glyph unicode="w" horiz-adv-x="2377" d="M33 1536h76l1048 -1509v1509h78l1024 -1509v1431h-334v78h334h74v-78v-1458h-127l-998 1458v-1458h-100z" />
<glyph unicode="x" horiz-adv-x="1239" d="M39 -2l539 772l-515 770h80l459 -692l463 692h80l-514 -770l538 -772h-75l-492 721l-487 -721h-76z" />
<glyph unicode="y" horiz-adv-x="1220" d="M49 1536h51h27h332v-74h-307l460 -872l461 946h76l-512 -1022v-512h-51v512z" />
<glyph unicode="z" horiz-adv-x="1153" d="M43 1155v336v51h78h923l-24 -51l-852 -1444l-4 -4l907 8v-53h-1001l24 27l850 1466h-823v-336h-78z" />
<glyph unicode="&#x2000;" horiz-adv-x="771" />
<glyph unicode="&#x2001;" horiz-adv-x="1542" />
<glyph unicode="&#x2002;" horiz-adv-x="771" />
<glyph unicode="&#x2003;" horiz-adv-x="1542" />
<glyph unicode="&#x2004;" horiz-adv-x="514" />
<glyph unicode="&#x2005;" horiz-adv-x="385" />
<glyph unicode="&#x2006;" horiz-adv-x="257" />
<glyph unicode="&#x2007;" horiz-adv-x="257" />
<glyph unicode="&#x2008;" horiz-adv-x="192" />
<glyph unicode="&#x2009;" horiz-adv-x="308" />
<glyph unicode="&#x200a;" horiz-adv-x="85" />
<glyph unicode="&#x202f;" horiz-adv-x="308" />
<glyph unicode="&#x205f;" horiz-adv-x="385" />
<glyph unicode="&#xe000;" horiz-adv-x="1536" d="M0 0v1536h1536v-1536h-1536z" />
</font>
</defs>
</svg>
